<svg width="30" height="30" viewBox="0 0 30 30" fill="none" xmlns="http://www.w3.org/2000/svg">
<circle cx="15" cy="15" r="15" fill="#F2F4F2"/>
<g clip-path="url(#clip0_529_8463)">
<path d="M20.8054 6.26904L19.1816 5.33154L16.612 9.78222L18.2358 10.7197L20.8054 6.26904Z" fill="#3D84ED"/>
<path d="M8.96463 25.3742L7.55868 26.8719L10.8115 21.2378L11.2175 21.4722L8.96463 25.3742Z" fill="url(#paint0_linear_529_8463)"/>
<path opacity="0.8" d="M19.3208 11.9663L14.9907 9.46631L11.6853 15.1914L16.0155 17.6914L19.3208 11.9663Z" fill="white"/>
<path d="M16.8863 16.1831L12.5562 13.6831L9.99933 18.1116L14.3295 20.6116L16.8863 16.1831Z" fill="url(#paint1_linear_529_8463)"/>
<mask id="mask0_529_8463" style="mask-type:alpha" maskUnits="userSpaceOnUse" x="9" y="13" width="8" height="8">
<path d="M16.8863 16.1831L12.5562 13.6831L9.99933 18.1116L14.3295 20.6116L16.8863 16.1831Z" fill="url(#paint2_linear_529_8463)"/>
</mask>
<g mask="url(#mask0_529_8463)">
<ellipse cx="11.4313" cy="17.2983" rx="1.875" ry="2.55682" transform="rotate(30 11.4313 17.2983)" fill="white" fill-opacity="0.1"/>
<ellipse cx="12.7055" cy="19.6743" rx="2.08333" ry="2.84091" transform="rotate(30 12.7055 19.6743)" fill="white" fill-opacity="0.1"/>
</g>
<path d="M21.8741 7.75203L17.3636 5.14786C17.2643 5.09057 17.2471 4.93298 17.3252 4.79767L17.6831 4.17767C17.7613 4.04235 17.9064 3.97852 18.0056 4.03581L22.5162 6.63997C22.6154 6.69727 22.6327 6.85485 22.5545 6.99017L22.1966 7.61017C22.1185 7.74548 21.9734 7.80932 21.8741 7.75203Z" fill="url(#paint3_linear_529_8463)"/>
<path d="M11.2523 22.6076L9.80891 21.7743C9.61044 21.6597 9.57591 21.3445 9.73216 21.0739L10.8799 19.0859L13.0449 20.3359L11.8972 22.3239C11.741 22.5945 11.4507 22.7222 11.2523 22.6076Z" fill="url(#paint4_linear_529_8463)"/>
<path d="M11.1752 21.9625L10.4084 21.5197C10.2099 21.4052 10.1754 21.09 10.3316 20.8194L11.2876 19.1636L12.7761 20.0229L11.8201 21.6787C11.6624 21.9518 11.3736 22.077 11.1752 21.9625Z" fill="url(#paint5_linear_529_8463)"/>
<path d="M13.8207 20.6589L10.2122 18.5756C10.0138 18.461 9.97923 18.1458 10.1355 17.8752L14.7363 9.90625L19.0665 12.4062L14.4656 20.3752C14.3094 20.6458 14.0191 20.7735 13.8207 20.6589Z" stroke="#3D84ED" stroke-width="1.0625" stroke-miterlimit="10"/>
<path d="M21.1988 13.2963L12.8994 8.50464C12.8002 8.44735 12.7829 8.28976 12.8611 8.15445L13.648 6.79144C13.7261 6.65612 13.8712 6.59229 13.9705 6.64958L22.2699 11.4412C22.3691 11.4985 22.3864 11.6561 22.3082 11.7914L21.5213 13.1544C21.4432 13.2898 21.2981 13.3536 21.1988 13.2963Z" fill="url(#paint6_linear_529_8463)"/>
</g>
<defs>
<linearGradient id="paint0_linear_529_8463" x1="8.96241" y1="24.0739" x2="9.50368" y2="24.3864" gradientUnits="userSpaceOnUse">
<stop stop-color="#3D84ED"/>
<stop offset="0.235" stop-color="#3D84ED"/>
</linearGradient>
<linearGradient id="paint1_linear_529_8463" x1="10.1798" y1="18.2158" x2="14.8373" y2="18.2313" gradientUnits="userSpaceOnUse">
<stop stop-color="#3D84ED"/>
<stop offset="1" stop-color="#ABC6EC"/>
</linearGradient>
<linearGradient id="paint2_linear_529_8463" x1="10.1798" y1="18.2158" x2="14.8373" y2="18.2313" gradientUnits="userSpaceOnUse">
<stop stop-color="#3EA3D5"/>
<stop offset="1" stop-color="#065E77"/>
</linearGradient>
<linearGradient id="paint3_linear_529_8463" x1="17.4905" y1="4.51126" x2="22.3619" y2="7.32376" gradientUnits="userSpaceOnUse">
<stop stop-color="#AFCDF9"/>
<stop offset="0.348958" stop-color="#3D84ED"/>
<stop offset="0.65625" stop-color="#3D84ED"/>
<stop offset="1" stop-color="#3D84ED"/>
</linearGradient>
<linearGradient id="paint4_linear_529_8463" x1="12.8205" y1="20.7247" x2="9.58404" y2="20.5014" gradientUnits="userSpaceOnUse">
<stop stop-color="#3D84ED"/>
<stop offset="1" stop-color="#373EE7"/>
</linearGradient>
<linearGradient id="paint5_linear_529_8463" x1="10.1125" y1="21.4572" x2="11.5684" y2="21.5253" gradientUnits="userSpaceOnUse">
<stop stop-color="#3D84ED"/>
<stop offset="1" stop-color="#3D84ED"/>
</linearGradient>
<linearGradient id="paint6_linear_529_8463" x1="13.2318" y1="7.5123" x2="21.8921" y2="12.5123" gradientUnits="userSpaceOnUse">
<stop stop-color="#AFCDF9"/>
<stop offset="0.348958" stop-color="#3D84ED"/>
<stop offset="0.65625" stop-color="#3D84ED"/>
<stop offset="1" stop-color="#3D84ED"/>
</linearGradient>
<clipPath id="clip0_529_8463">
<rect width="10" height="25" fill="white" transform="translate(15.9307 2.83789) rotate(30)"/>
</clipPath>
</defs>
</svg>
