<svg width="15" height="22" viewBox="0 0 15 22" fill="none" xmlns="http://www.w3.org/2000/svg">
<path d="M12.3485 14.1528C12.3485 16.5213 10.8702 18.5439 8.78718 19.3544H11.6517C13.038 18.0528 13.9041 16.2044 13.9041 14.1528C13.9041 10.7342 11.4993 7.87695 8.28879 7.18018L6.89282 8.57614C9.91944 8.64389 12.3485 11.114 12.3485 14.1528Z" fill="#3D84ED"/>
<path d="M14.5162 21.29H0.967758C0.701629 21.29 0.483887 21.0722 0.483887 20.8061V19.8384C0.483887 19.5722 0.701629 19.3545 0.967758 19.3545H14.5162C14.7823 19.3545 15 19.5722 15 19.8384V20.8061C15 21.0722 14.7823 21.29 14.5162 21.29Z" fill="#3D84ED"/>
<path d="M12.1944 6.46562L7.84058 2.11182L0.94977 9.00262L5.30357 13.3564L12.1944 6.46562Z" fill="url(#paint0_linear_529_8505)"/>
<mask id="mask0_529_8505" style="mask-type:alpha" maskUnits="userSpaceOnUse" x="0" y="2" width="13" height="12">
<path d="M12.1944 6.46562L7.84058 2.11182L0.94977 9.00262L5.30357 13.3564L12.1944 6.46562Z" fill="url(#paint1_linear_529_8505)"/>
</mask>
<g mask="url(#mask0_529_8505)">
<circle cx="3.5083" cy="7.45117" r="3.9917" fill="white" fill-opacity="0.2"/>
<ellipse cx="5.50415" cy="12.1082" rx="3.59253" ry="3.59253" fill="white" fill-opacity="0.2"/>
</g>
<path d="M13.4522 3.52274L10.7834 0.854004L8.62622 3.01123L11.295 5.67996L13.4522 3.52274Z" fill="url(#paint2_linear_529_8505)"/>
<path d="M12.1767 7.24297L7.06217 2.12845C6.90734 1.97361 6.90734 1.72441 7.06217 1.57199L7.24363 1.39054C7.39846 1.2357 7.64766 1.2357 7.80008 1.39054L12.9146 6.50506C13.0694 6.6599 13.0694 6.90909 12.9146 7.06151L12.7331 7.24297C12.5807 7.39538 12.3315 7.39538 12.1767 7.24297Z" fill="#3D84ED"/>
<path d="M13.8049 4.1752L10.1299 0.500202C10.0404 0.410686 10.0404 0.263105 10.1299 0.173589L10.2363 0.0671371C10.3258 -0.022379 10.4734 -0.022379 10.5629 0.0671371L14.2379 3.74214C14.3275 3.83166 14.3275 3.97924 14.2379 4.06875L14.1315 4.1752C14.042 4.26714 13.8944 4.26714 13.8049 4.1752Z" fill="#3D84ED"/>
<path d="M5.22823 14.1912L0.116129 9.07669C-0.0387097 8.92185 -0.0387097 8.67266 0.116129 8.52024L0.297581 8.33879C0.45242 8.18395 0.701613 8.18395 0.854033 8.33879L5.96855 13.4533C6.12339 13.6081 6.12339 13.8573 5.96855 14.0098L5.7871 14.1912C5.63226 14.3436 5.38307 14.3436 5.22823 14.1912Z" fill="#3D84ED"/>
<path d="M12.8105 15.9912H1.10082C0.89372 15.9912 0.72583 15.8233 0.72583 15.6162C0.72583 15.4091 0.89372 15.2412 1.10082 15.2412H12.8105C13.0176 15.2412 13.1855 15.4091 13.1855 15.6162C13.1855 15.8233 13.0176 15.9912 12.8105 15.9912Z" fill="#3D84ED"/>
<path d="M9.67757 20.0802C10.4125 20.0802 11.0082 19.4845 11.0082 18.7496C11.0082 18.0147 10.4125 17.4189 9.67757 17.4189C8.94267 17.4189 8.34692 18.0147 8.34692 18.7496C8.34692 19.4845 8.94267 20.0802 9.67757 20.0802Z" fill="#3D84ED"/>
<path d="M9.67745 19.6371C10.1678 19.6371 10.5654 19.2396 10.5654 18.7492C10.5654 18.2589 10.1678 17.8613 9.67745 17.8613C9.18708 17.8613 8.78955 18.2589 8.78955 18.7492C8.78955 19.2396 9.18708 19.6371 9.67745 19.6371Z" fill="#3D84ED"/>
<defs>
<linearGradient id="paint0_linear_529_8505" x1="-0.749389" y1="9.97908" x2="11.2965" y2="10.8008" gradientUnits="userSpaceOnUse">
<stop stop-color="#D2E3FD"/>
<stop offset="0.828698" stop-color="#3D84ED"/>
</linearGradient>
<linearGradient id="paint1_linear_529_8505" x1="-0.749389" y1="9.97908" x2="11.2965" y2="10.8008" gradientUnits="userSpaceOnUse">
<stop stop-color="#91D6F9"/>
<stop offset="0.828698" stop-color="#107DB4"/>
</linearGradient>
<linearGradient id="paint2_linear_529_8505" x1="6.03629" y1="2.92714" x2="15.2172" y2="3.45937" gradientUnits="userSpaceOnUse">
<stop stop-color="#3D84ED"/>
<stop offset="1" stop-color="#134EA6"/>
</linearGradient>
</defs>
</svg>
