<svg width="30" height="30" viewBox="0 0 30 30" fill="none" xmlns="http://www.w3.org/2000/svg">
<circle cx="15" cy="15" r="15" fill="#F2F4F2"/>
<path fill-rule="evenodd" clip-rule="evenodd" d="M17.8441 9.33341L19.1022 11.0109C20.9509 13.4767 21.8749 14.7087 21.8749 16.2396C21.8749 17.7713 20.9509 19.0033 19.1022 21.4682C17.2528 23.9341 16.3288 25.1661 15.18 25.1661C14.0319 25.1661 13.1072 23.9341 11.2585 21.4692L10.0004 19.7917C8.93822 18.3745 8.40678 17.6668 8.20947 16.7474C8.01147 15.828 8.1806 14.8517 8.51885 12.9002L8.71341 11.7745C8.99735 10.1318 9.13966 9.31049 9.5611 8.74766C9.98253 8.18483 10.5992 7.99599 11.8312 7.61741L12.6755 7.35708C14.1398 6.90699 14.8713 6.68149 15.5609 6.94458C16.2505 7.20858 16.7819 7.91716 17.8441 9.33341ZM14.4128 18.1334C13.9501 17.5174 13.9535 16.6319 14.2306 15.9307C14.162 15.7986 14.1303 15.6386 14.1409 15.4786C14.1516 15.3185 14.2039 15.1685 14.2889 15.0546C14.3738 14.9407 14.4861 14.87 14.606 14.8549C14.726 14.8398 14.8461 14.8811 14.9456 14.9718C15.1793 14.8068 15.4358 14.7188 15.6915 14.7225C15.8283 14.7242 15.9589 14.7983 16.0547 14.9284C16.1505 15.0585 16.2036 15.2341 16.2023 15.4164C16.2011 15.5987 16.1455 15.7729 16.0479 15.9007C15.9503 16.0284 15.8187 16.0992 15.6819 16.0975C15.5227 16.1053 15.3723 16.1966 15.2632 16.3514C14.9972 16.7062 15.0666 17.0618 15.1415 17.1617C15.2172 17.2617 15.4832 17.3542 15.7493 16.9995C16.2883 16.2808 17.2192 16.0425 17.8152 16.8372C18.2779 17.4542 18.2745 18.3397 17.9974 19.0409C18.0656 19.173 18.0969 19.3328 18.0861 19.4925C18.0753 19.6522 18.0229 19.8018 17.938 19.9155C17.8532 20.0292 17.7412 20.0997 17.6215 20.1149C17.5018 20.1301 17.3818 20.0891 17.2824 19.9988C16.9739 20.2245 16.616 20.2997 16.2704 20.2115C16.1364 20.1748 16.0188 20.0686 15.9435 19.9163C15.8682 19.764 15.8414 19.578 15.8689 19.3993C15.8964 19.2206 15.9761 19.0639 16.0903 18.9635C16.2046 18.8631 16.344 18.8273 16.478 18.864C16.5997 18.8979 16.7963 18.8447 16.9648 18.6202C17.2308 18.2645 17.1614 17.9097 17.0865 17.8098C17.0108 17.7099 16.7448 17.6173 16.4787 17.9721C15.9397 18.6907 15.0088 18.9291 14.4128 18.1334ZM13.6387 14.4347C13.7663 14.2644 13.8676 14.0623 13.9366 13.8398C14.0057 13.6173 14.0413 13.3789 14.0412 13.1382C14.0412 12.8974 14.0056 12.659 13.9365 12.4366C13.8673 12.2142 13.766 12.0121 13.6383 11.8419C13.5106 11.6717 13.359 11.5366 13.1922 11.4445C13.0253 11.3525 12.8465 11.3051 12.6659 11.3051C12.4854 11.3052 12.3066 11.3526 12.1398 11.4448C11.9729 11.537 11.8214 11.6721 11.6937 11.8423C11.4359 12.1862 11.2911 12.6526 11.2912 13.1388C11.2912 13.6251 11.4361 14.0914 11.6941 14.4351C11.952 14.7789 12.3018 14.972 12.6664 14.9719C13.0311 14.9718 13.3808 14.7785 13.6387 14.4347Z" fill="#3D84ED"/>
</svg>
