<svg width="30" height="30" viewBox="0 0 30 30" fill="none" xmlns="http://www.w3.org/2000/svg">
<path d="M13.75 24.875V5.125C13.75 3.25 12.95 2.5 10.9625 2.5H5.9125C3.925 2.5 3.125 3.25 3.125 5.125V24.875C3.125 26.75 3.925 27.5 5.9125 27.5H10.9625C12.95 27.5 13.75 26.75 13.75 24.875Z" fill="white"/>
<path d="M26.875 24.55V19.2C26.875 17.575 25.625 16.25 24.0875 16.25H19.0375C17.5 16.25 16.25 17.575 16.25 19.2V24.55C16.25 26.175 17.5 27.5 19.0375 27.5H24.0875C25.625 27.5 26.875 26.175 26.875 24.55Z" fill="white"/>
<path d="M26.875 10.8V5.45C26.875 3.825 25.625 2.5 24.0875 2.5H19.0375C17.5 2.5 16.25 3.825 16.25 5.45V10.8C16.25 12.425 17.5 13.75 19.0375 13.75H24.0875C25.625 13.75 26.875 12.425 26.875 10.8Z" fill="white"/>
</svg>
