<svg width="24" height="32" viewBox="0 0 24 32" fill="none" xmlns="http://www.w3.org/2000/svg">
<path fill-rule="evenodd" clip-rule="evenodd" d="M16.1369 6.30368L17.9669 8.74368C20.6559 12.3303 21.9999 14.1223 21.9999 16.349C21.9999 18.577 20.6559 20.369 17.9669 23.9543C15.2769 27.541 13.9329 29.333 12.2619 29.333C10.5919 29.333 9.24687 27.541 6.55787 23.9557L4.72787 21.5157C3.18287 19.4543 2.40987 18.425 2.12287 17.0877C1.83487 15.7503 2.08087 14.3303 2.57287 11.4917L2.85587 9.85434C3.26887 7.46501 3.47587 6.27034 4.08887 5.45168C4.70187 4.63301 5.59887 4.35834 7.39087 3.80768L8.61887 3.42901C10.7489 2.77434 11.8129 2.44634 12.8159 2.82901C13.8189 3.21301 14.5919 4.24368 16.1369 6.30368ZM11.1459 19.1037C10.4729 18.2077 10.4779 16.9197 10.8809 15.8997C10.7811 15.7075 10.735 15.4749 10.7504 15.2421C10.7659 15.0093 10.8421 14.7911 10.9657 14.6254C11.0892 14.4597 11.2524 14.3569 11.4269 14.3349C11.6014 14.3129 11.7762 14.3731 11.9209 14.505C12.2609 14.265 12.6339 14.137 13.0059 14.1423C13.2048 14.1448 13.3948 14.2525 13.5341 14.4418C13.6735 14.6311 13.7507 14.8865 13.7489 15.1517C13.747 15.4169 13.6662 15.6703 13.5242 15.856C13.3823 16.0418 13.1908 16.1448 12.9919 16.1423C12.7603 16.1537 12.5415 16.2865 12.3829 16.5117C11.9959 17.0277 12.0969 17.545 12.2059 17.6903C12.3159 17.8357 12.7029 17.9703 13.0899 17.4543C13.8739 16.409 15.2279 16.0623 16.0949 17.2183C16.7679 18.1157 16.7629 19.4037 16.3599 20.4237C16.459 20.6159 16.5046 20.8482 16.4889 21.0805C16.4731 21.3128 16.3969 21.5305 16.2735 21.6958C16.1501 21.8611 15.9873 21.9637 15.8131 21.9859C15.639 22.008 15.4645 21.9483 15.3199 21.817C14.8711 22.1453 14.3506 22.2547 13.8479 22.1263C13.6529 22.0729 13.4819 21.9185 13.3724 21.6969C13.2628 21.4754 13.2238 21.2049 13.2639 20.945C13.3039 20.6851 13.4198 20.457 13.5859 20.311C13.7521 20.165 13.9549 20.1129 14.1499 20.1663C14.3269 20.2157 14.6129 20.1383 14.8579 19.8117C15.2449 19.2943 15.1439 18.7783 15.0349 18.633C14.9249 18.4877 14.5379 18.353 14.1509 18.869C13.3669 19.9143 12.0129 20.261 11.1459 19.1037ZM10.0199 13.7237C10.2056 13.476 10.3528 13.182 10.4533 12.8584C10.5538 12.5349 10.6055 12.1881 10.6054 11.8379C10.6054 11.4877 10.5536 11.1409 10.453 10.8174C10.3525 10.4939 10.2051 10.1999 10.0194 9.95234C9.83361 9.70476 9.6131 9.50838 9.37043 9.37442C9.12775 9.24046 8.86766 9.17155 8.60501 9.17161C8.34236 9.17167 8.08229 9.24071 7.83965 9.37478C7.59701 9.50885 7.37656 9.70534 7.19087 9.95301C6.81585 10.4532 6.60522 11.1316 6.60531 11.8388C6.60541 12.5461 6.81622 13.2243 7.19137 13.7243C7.56652 14.2244 8.07527 14.5052 8.60572 14.5051C9.13617 14.505 9.64485 14.2239 10.0199 13.7237Z" fill="white"/>
</svg>
