<svg width="22" height="31" viewBox="0 0 22 31" fill="none" xmlns="http://www.w3.org/2000/svg">
<path d="M17.9806 20.6079C17.9806 24.0567 15.8281 27.0018 12.795 28.1819H16.966C18.9846 26.2867 20.2458 23.5952 20.2458 20.6079C20.2458 15.6301 16.7441 11.4697 12.0693 10.4551L10.0366 12.4877C14.4437 12.5864 17.9806 16.1832 17.9806 20.6079Z" fill="white"/>
<path d="M21.137 30.9999H1.40916C1.02164 30.9999 0.70459 30.6828 0.70459 30.2953V28.8862C0.70459 28.4987 1.02164 28.1816 1.40916 28.1816H21.137C21.5245 28.1816 21.8416 28.4987 21.8416 28.8862V30.2953C21.8416 30.6828 21.5245 30.9999 21.137 30.9999Z" fill="white"/>
<path d="M17.7561 9.41477L11.4165 3.0752L1.38279 13.1089L7.72236 19.4485L17.7561 9.41477Z" fill="#3D84ED"/>
<mask id="mask0_529_8377" style="mask-type:alpha" maskUnits="userSpaceOnUse" x="1" y="3" width="17" height="17">
<path d="M17.7561 9.41477L11.4165 3.0752L1.38279 13.1089L7.72236 19.4485L17.7561 9.41477Z" fill="url(#paint0_linear_529_8377)"/>
</mask>
<g mask="url(#mask0_529_8377)">
<circle cx="5.10871" cy="10.8494" r="5.81232" fill="white" fill-opacity="0.2"/>
<circle cx="8.01478" cy="17.6305" r="5.23109" fill="white" fill-opacity="0.2"/>
</g>
<path d="M19.5881 5.1296L15.7021 1.24365L12.561 4.38479L16.447 8.27074L19.5881 5.1296Z" fill="white"/>
<path d="M17.7306 10.5463L10.2834 3.09903C10.0579 2.87357 10.0579 2.51071 10.2834 2.28878L10.5476 2.02456C10.773 1.7991 11.1359 1.7991 11.3578 2.02456L18.8051 9.47182C19.0305 9.69728 19.0305 10.0601 18.8051 10.2821L18.5409 10.5463C18.3189 10.7682 17.9561 10.7682 17.7306 10.5463Z" fill="white"/>
<path d="M20.1013 6.07952L14.7501 0.728345C14.6198 0.598 14.6198 0.383107 14.7501 0.252763L14.9051 0.0977585C15.0355 -0.0325862 15.2503 -0.0325862 15.3807 0.0977585L20.7319 5.44893C20.8622 5.57928 20.8622 5.79417 20.7319 5.92451L20.5769 6.07952C20.4465 6.21339 20.2316 6.21339 20.1013 6.07952Z" fill="white"/>
<path d="M7.61283 20.664L0.169096 13.2167C-0.0563652 12.9912 -0.0563652 12.6284 0.169096 12.4065L0.433308 12.1422C0.658769 11.9168 1.02162 11.9168 1.24356 12.1422L8.69081 19.5895C8.91628 19.815 8.91628 20.1778 8.69081 20.3997L8.4266 20.664C8.20114 20.8859 7.83829 20.8859 7.61283 20.664Z" fill="white"/>
<path d="M18.6532 23.2849H1.60267C1.30111 23.2849 1.05664 23.0405 1.05664 22.7389C1.05664 22.4373 1.3011 22.1929 1.60267 22.1929H18.6532C18.9547 22.1929 19.1992 22.4373 19.1992 22.7389C19.1992 23.0405 18.9547 23.2849 18.6532 23.2849Z" fill="white"/>
<path d="M14.0914 29.2384C15.1614 29.2384 16.0289 28.3709 16.0289 27.3008C16.0289 26.2308 15.1614 25.3633 14.0914 25.3633C13.0213 25.3633 12.1538 26.2308 12.1538 27.3008C12.1538 28.3709 13.0213 29.2384 14.0914 29.2384Z" fill="white"/>
<path d="M14.0912 28.5941C14.8053 28.5941 15.3841 28.0152 15.3841 27.3012C15.3841 26.5871 14.8053 26.0083 14.0912 26.0083C13.3772 26.0083 12.7983 26.5871 12.7983 27.3012C12.7983 28.0152 13.3772 28.5941 14.0912 28.5941Z" fill="white"/>
<defs>
<linearGradient id="paint0_linear_529_8377" x1="-1.09136" y1="14.5307" x2="16.4487" y2="15.7273" gradientUnits="userSpaceOnUse">
<stop stop-color="#91D6F9"/>
<stop offset="0.828698" stop-color="#107DB4"/>
</linearGradient>
</defs>
</svg>
