<svg width="31" height="36" viewBox="0 0 31 36" fill="none" xmlns="http://www.w3.org/2000/svg">
<g clip-path="url(#clip0_529_8353)">
<path d="M23.9924 5.62305L21.2319 4.0293L18.0285 9.57781L20.789 11.1716L23.9924 5.62305Z" fill="white"/>
<path d="M8.95433 29.2825L7.01755 31.0434L11.0728 24.0195L11.7629 24.418L8.95433 29.2825Z" fill="white"/>
<path opacity="0.8" d="M22.7543 13.0801L15.3931 8.83008L11.2723 15.9674L18.6336 20.2174L22.7543 13.0801Z" fill="white"/>
<path d="M19.7191 18.3379L12.3579 14.0879L9.17041 19.6088L16.5316 23.8588L19.7191 18.3379Z" fill="url(#paint0_linear_529_8353)"/>
<mask id="mask0_529_8353" style="mask-type:alpha" maskUnits="userSpaceOnUse" x="9" y="14" width="11" height="10">
<path d="M19.7191 18.3379L12.3579 14.0879L9.17041 19.6088L16.5316 23.8588L19.7191 18.3379Z" fill="url(#paint1_linear_529_8353)"/>
</mask>
<g mask="url(#mask0_529_8353)">
<circle cx="11.2824" cy="18.7839" r="3.1875" transform="rotate(30 11.2824 18.7839)" fill="white" fill-opacity="0.1"/>
<circle cx="13.7714" cy="22.2657" r="3.54167" transform="rotate(30 13.7714 22.2657)" fill="white" fill-opacity="0.1"/>
</g>
<path d="M25.9784 7.8499L18.3105 3.42282C18.1418 3.32542 18.0835 3.10771 18.1809 2.93902L18.6271 2.16609C18.7245 1.9974 18.9422 1.93906 19.1109 2.03646L26.7788 6.46354C26.9475 6.56094 27.0059 6.77865 26.9085 6.94734L26.4622 7.72027C26.3648 7.88896 26.1471 7.9473 25.9784 7.8499Z" fill="white"/>
<path d="M12.0415 25.968L9.58771 24.5513C9.25032 24.3566 9.13365 23.9211 9.32844 23.5837L10.7593 21.1055L14.4399 23.2305L13.0091 25.7087C12.8143 26.0461 12.3788 26.1628 12.0415 25.968Z" fill="white"/>
<path d="M11.7924 25.0774L10.4889 24.3248C10.1515 24.13 10.0348 23.6946 10.2296 23.3572L11.4214 21.293L13.9518 22.7539L12.76 24.8181C12.5635 25.1586 12.1298 25.2722 11.7924 25.0774Z" fill="url(#paint2_linear_529_8353)"/>
<path d="M15.7336 23.8227L9.59922 20.2811C9.26183 20.0863 9.14516 19.6509 9.33995 19.3135L15.0757 9.37891L22.4369 13.6289L16.7012 23.5635C16.5064 23.9009 16.071 24.0175 15.7336 23.8227Z" stroke="white" stroke-width="1.0625" stroke-miterlimit="10"/>
<path d="M25.9951 15.2586L11.8861 7.11278C11.7174 7.01538 11.659 6.79767 11.7564 6.62898L12.7375 4.92976C12.8349 4.76107 13.0526 4.70273 13.2213 4.80013L27.3303 12.946C27.499 13.0434 27.5573 13.2611 27.4599 13.4298L26.4789 15.129C26.3815 15.2977 26.1638 15.356 25.9951 15.2586Z" fill="white"/>
</g>
<defs>
<linearGradient id="paint0_linear_529_8353" x1="9.47713" y1="19.7859" x2="16.5981" y2="18.7853" gradientUnits="userSpaceOnUse">
<stop stop-color="white"/>
<stop offset="1" stop-color="#3D84ED"/>
</linearGradient>
<linearGradient id="paint1_linear_529_8353" x1="9.47713" y1="19.7859" x2="16.5981" y2="18.7853" gradientUnits="userSpaceOnUse">
<stop stop-color="#3EA3D5"/>
<stop offset="1" stop-color="#065E77"/>
</linearGradient>
<linearGradient id="paint2_linear_529_8353" x1="10.0072" y1="24.1816" x2="12.2779" y2="23.9765" gradientUnits="userSpaceOnUse">
<stop stop-color="white"/>
<stop offset="1" stop-color="white"/>
</linearGradient>
<clipPath id="clip0_529_8353">
<rect width="17" height="31.1667" fill="white" transform="translate(15.5835) rotate(30)"/>
</clipPath>
</defs>
</svg>
